#!OML:ASF I:\AllaLogoMonkeySwing\Project 1\Capture day 1\Session 1\Subject1.ASF
:FULLY-SPECIFIED
:DEGREES
367
root 11.3156 19.5105 -18.3341 -186.438 -77.3937 -163.968
lowerback 6.95556 4.07908 1.39523
upperback -3.34743 5.76515 3.18292
thorax -7.617 2.81632 1.7908
lowerneck -14.9365 4.42721 1.82833
upperneck 5.92663 6.14737 -6.39466
head 4.45465 2.64627 -1.77412
rclavicle 9.64106e-015 -1.98785e-014
rhumerus -50.0639 32.0823 -86.7631
rradius 101.135
rwrist -4.41307
rhand -4.86823 -27.9895
rfingers 7.12502
rthumb 20.92 -56.8814
lclavicle 9.64106e-015 -1.98785e-014
lhumerus -46.3566 -24.1395 34.5463
lradius 133.554
lwrist 26.995
lhand -14.8735 -31.1233
lfingers 7.12502
lthumb 11.2868 -1.44693
rfemur 2.37912 -5.70719 15.1672
rtibia 39.701
rfoot 21.7044 -18.8189
rtoes 14.2495
lfemur 1.13842 -12.1504 -22.253
ltibia 24.7028
lfoot 31.8672 -25.3897
ltoes 14.5793
368
root 10.8509 19.9593 -18.4354 -182.605 -78.8639 -168.892
lowerback 7.64596 3.78693 0.225882
upperback -2.92512 5.24621 2.65563
thorax -7.60075 2.61378 1.92279
lowerneck -14.3584 4.37148 1.68111
upperneck 6.02074 6.17563 -7.10412
head 4.41503 2.61964 -1.97619
rclavicle -2.36554e-014 2.78299e-014
rhumerus -49.5792 31.489 -85.5144
rradius 95.8014
rwrist -2.62903
rhand -4.34628 -29.0857
rfingers 7.12502
rthumb 21.4214 -57.9215
lclavicle -2.36554e-014 2.78299e-014
lhumerus -49.7287 -24.9021 36.5313
lradius 130.216
lwrist 25.7139
lhand -16.0252 -31.3526
lfingers 7.12502
lthumb 10.1759 -1.61866
rfemur 0.387737 -5.79597 13.6611
rtibia 44.6051
rfoot 20.5035 -23.8968
rtoes 16.2356
lfemur 2.79825 -12.2798 -24.3833
ltibia 25.2468
lfoot 34.7959 -24.8032
ltoes 21.8634
369
root 10.4292 20.3937 -18.5443 -176.899 -80.769 -175.243
lowerback 8.46837 3.61814 -1.29219
upperback -2.35936 4.83959 2.29182
thorax -7.54951 2.47881 2.4111
lowerneck -13.9012 4.2683 0.921987
upperneck 5.51374 6.1447 -7.25968
head 4.16795 2.59608 -1.91762
rclavicle -1.10325e-014 -7.95139e-016
rhumerus -49.1066 29.8903 -83.5396
rradius 90.1428
rwrist -1.54928
rhand -4.24461 -30.3621
rfingers 7.12502
rthumb 21.519 -59.1867
lclavicle -1.10325e-014 -7.95139e-016
lhumerus -52.1865 -24.3513 40.7556
lradius 127.401
lwrist 25.7321
lhand -16.3317 -27.3817
lfingers 7.12502
lthumb 9.88011 2.36643
rfemur -2.45324 -6.50449 12.3178
rtibia 49.1087
rfoot 20.7629 -28.375
rtoes 19.5758
lfemur 2.76102 -11.4467 -26.0202
ltibia 28.099
lfoot 35.5596 -26.0972
ltoes 18.0301
370
root 10.0263 20.7911 -18.6578 -175.061 -83.193 -177.972
lowerback 10.0457 3.47578 -1.77687
upperback -1.65739 4.56204 2.13768
thorax -7.71299 2.35144 2.49484
lowerneck -12.9519 3.95705 -0.0372184
upperneck 3.94057 5.73574 -6.81118
head 3.85807 2.47068 -1.86071
rclavicle 5.65542e-014 5.56597e-015
rhumerus -48.4213 27.5665 -81.4901
rradius 84.7673
rwrist -1.24906
rhand -5.08143 -29.9189
rfingers 7.12502
rthumb 20.7152 -58.8333
lclavicle 5.65542e-014 5.56597e-015
lhumerus -52.6496 -22.9232 45.3136
lradius 123.425
lwrist 25.0141
lhand -15.0086 -25.7772
lfingers 7.12502
lthumb 11.1565 3.90625
rfemur -4.52184 -7.52315 11.9707
rtibia 52.4293
rfoot 17.7209 -26.5317
rtoes 20.2686
lfemur 2.18744 -9.9293 -26.4617
ltibia 32.2702
lfoot 36.5221 -24.1056
ltoes 20.9528
371
root 9.62125 21.1623 -18.7762 -182.81 -85.9542 -170.919
lowerback 11.6339 3.29658 -1.26988
upperback -0.919131 4.36265 2.23358
thorax -7.78349 2.21767 2.28485
lowerneck -12.7563 3.56603 -0.771914
upperneck 3.55297 5.26864 -6.43173
head 3.62103 2.25969 -1.6361
rclavicle -1.11319e-014 3.18055e-015
rhumerus -47.7094 25.0573 -79.3273
rradius 79.242
rwrist -2.06076
rhand -4.91742 -30.4229
rfingers 7.12502
rthumb 20.8728 -59.32
lclavicle -1.11319e-014 3.18055e-015
lhumerus -52.5081 -21.7837 50.1187
lradius 119.29
lwrist 23.7783
lhand -14.6992 -23.5396
lfingers 7.12502
lthumb 11.4548 6.12745
rfemur -6.48962 -8.88367 12.7735
rtibia 54.6761
rfoot 18.1808 -23.5148
rtoes 18.9663
lfemur 1.05635 -8.11613 -25.6241
ltibia 36.6299
lfoot 35.5562 -25.0783
ltoes 10.8973
372
root 9.21951 21.4857 -18.9066 -224.073 -88.3129 -129.972
lowerback 13.3546 3.20981 -0.744698
upperback -0.567846 4.3205 2.44309
thorax -8.35945 2.16635 2.14511
lowerneck -11.9576 3.05088 -1.22028
upperneck 2.76374 4.55382 -6.16168
head 3.14343 1.94899 -1.52273
rclavicle 4.91992e-014 3.97569e-015
rhumerus -47.3078 22.6785 -77.3352
rradius 73.7513
rwrist -3.72782
rhand -4.83243 -31.2433
rfingers 7.12502
rthumb 20.9544 -60.1315
lclavicle 4.91992e-014 3.97569e-015
lhumerus -52.2536 -21.1606 55.0834
lradius 114.407
lwrist 21.1184
lhand -14.909 -25.3998
lfingers 7.12502
lthumb 11.2525 4.27839
rfemur -8.63151 -10.1632 14.0489
rtibia 55.8997
rfoot 19.2378 -19.5383
rtoes 14.5307
lfemur -0.666279 -6.06448 -24.2363
ltibia 40.5038
lfoot 32.5889 -26.5449
ltoes 0.42751
373
root 8.81326 21.7803 -19.0496 -134.935 -92.2816 -218.986
lowerback 13.9596 3.04759 -0.266165
upperback 0.16621 4.11795 2.02708
thorax -7.83021 2.02717 1.46489
lowerneck -11.8839 2.63304 -0.75609
upperneck 2.51602 3.90848 -6.01376
head 3.03413 1.65337 -1.59851
rclavicle -3.74709e-014 -2.06736e-014
rhumerus -46.126 20.255 -75.9261
rradius 68.4624
rwrist -5.64348
rhand -4.55556 -32.3508
rfingers 7.12502
rthumb 21.2204 -61.2093
lclavicle -3.74709e-014 -2.06736e-014
lhumerus -50.6026 -20.5919 58.5539
lradius 109.324
lwrist 20.5964
lhand -15.7797 -26.0231
lfingers 7.12502
lthumb 10.4127 3.69902
rfemur -10.9707 -11.0399 14.7842
rtibia 56.4623
rfoot 15.8603 -19.3042
rtoes 18.3879
lfemur -2.83252 -3.89953 -23.3617
ltibia 43.6851
lfoot 28.5852 -27.0884
ltoes -8.84592
374
root 8.41026 22.0292 -19.2033 -158.494 -94.8111 -195.062
lowerback 14.8235 2.54994 -0.646272
upperback 0.753301 3.37309 2.09132
thorax -7.68326 1.66885 1.88246
lowerneck -11.5507 2.62996 -1.14543
upperneck 1.62288 3.89712 -6.25079
head 2.66075 1.65872 -1.60844
rclavicle 2.16675e-014 6.36111e-015
rhumerus -44.398 19.6344 -74.0686
rradius 63.7371
rwrist -7.13609
rhand -4.12081 -32.0414
rfingers 7.12502
rthumb 21.6379 -60.8524
lclavicle 2.16675e-014 6.36111e-015
lhumerus -49.5864 -18.3828 61.9822
lradius 103.837
lwrist 18.8576
lhand -15.9392 -26.5223
lfingers 7.12502
lthumb 10.2588 3.20749
rfemur -13.5917 -11.983 15.2368
rtibia 56.494
rfoot 15.8165 -18.5953
rtoes 21.6146
lfemur -5.27178 -2.68239 -23.0111
ltibia 45.4818
lfoot 27.6354 -24.0212
ltoes -5.41323
375
root 8.00842 22.2476 -19.3678 -165.08 -97.5771 -188.175
lowerback 16.1754 2.33671 -1.14716
upperback 1.0942 2.98028 2.0777
thorax -8.07815 1.48625 2.20121
lowerneck -10.6187 2.55203 -0.924066
upperneck 0.774072 3.69399 -6.52637
head 2.21001 1.59022 -1.75406
rclavicle -7.51406e-014 -1.43125e-014
rhumerus -43.3526 18.3117 -72.3802
rradius 59.216
rwrist -8.4816
rhand -3.73621 -31.3203
rfingers 7.12502
rthumb 22.0073 -60.0883
lclavicle -7.51406e-014 -1.43125e-014
lhumerus -48.1171 -17.0963 64.9989
lradius 98.0157
lwrist 18.2469
lhand -15.1452 -26.0815
lfingers 7.12502
lthumb 11.0247 3.60897
rfemur -15.9501 -12.8538 15.7002
rtibia 56.0202
rfoot 16.0259 -17.3727
rtoes 23.1518
lfemur -7.37605 -2.30042 -22.7631
ltibia 46.2341
lfoot 24.8764 -22.8586
ltoes -2.19919
376
root 7.62569 22.3616 -19.5381 -168.017 -100.956 -184.889
lowerback 17.6055 1.76674 -1.23515
upperback 1.54526 2.18115 2.13755
thorax -8.34539 1.092 2.4805
lowerneck -10.1464 2.57834 -0.800837
upperneck -0.124427 3.65148 -7.03698
head 1.8428 1.58454 -1.94696
rclavicle 2.38542e-015 1.51076e-014
rhumerus -41.9209 17.3175 -70.6436
rradius 55.0035
rwrist -8.98696
rhand -2.70473 -31.2572
rfingers 7.12502
rthumb 22.9973 -59.9053
lclavicle 2.38542e-015 1.51076e-014
lhumerus -46.4235 -15.31 67.5514
lradius 91.6888
lwrist 15.4246
lhand -15.2811 -25.8358
lfingers 7.12502
lthumb 10.8936 3.8616
rfemur -18.3332 -14.0391 16.1314
rtibia 55.432
rfoot 16.613 -17.0746
rtoes 26.3126
lfemur -9.24394 -2.0628 -22.7201
ltibia 45.5656
lfoot 22.3836 -21.8464
ltoes -3.59971
